<svg xmlns="http://www.w3.org/2000/svg" version="1.1" xmlns:xlink="http://www.w3.org/1999/xlink" xmlns:svgjs="http://svgjs.dev/svgjs" width="1500" height="1290" viewBox="0 0 1500 1290"><g transform="matrix(1,0,0,1,0.4508011387734996,0.5222672064777498)"><svg viewBox="0 0 287 247" data-background-color="#ffffff" preserveAspectRatio="xMidYMid meet" height="1290" width="1500" xmlns="http://www.w3.org/2000/svg" xmlns:xlink="http://www.w3.org/1999/xlink"><g id="tight-bounds" transform="matrix(1,0,0,1,-0.08625328455198655,-0.09999999999999432)"><svg viewBox="0 0 287.172506569104 247.2" height="247.2" width="287.172506569104"><g><svg viewBox="0 0 395.52 340.4662415915237" height="247.2" width="287.172506569104"><g><svg viewBox="0 0 395.52 340.4662415915237" height="340.4662415915237" width="395.52"><g id="textblocktransform"><svg viewBox="0 0 395.52 340.4662415915237" height="340.4662415915237" width="395.52" id="textblock"><g><svg viewBox="0 0 395.52 233.95326500732062" height="233.95326500732062" width="395.52"><g transform="matrix(1,0,0,1,0,0)"><svg width="395.52" viewBox="2.85 -39.65 68.29 40.4" height="233.95326500732062" data-palette-color="#ffb754"><path d="M14.5-27.1Q15.65-27.1 16.55-26.75L16.55-26.75 15.55-20.85Q14.55-21.1 13.7-21.1L13.7-21.1Q11.8-21.1 10.7-19.45 9.6-17.8 9-14.55L9-14.55 9 0 2.85 0 2.85-26.45 8.2-26.45 8.65-21.85Q10.5-27.1 14.5-27.1L14.5-27.1ZM19.4-26.45L25.55-26.45 25.55 0 19.4 0 19.4-26.45ZM22.45-39.65Q24.1-39.65 25.12-38.6 26.15-37.55 26.15-35.9L26.15-35.9Q26.15-34.3 25.12-33.25 24.1-32.2 22.45-32.2L22.45-32.2Q20.8-32.2 19.77-33.25 18.75-34.3 18.75-35.9L18.75-35.9Q18.75-37.55 19.77-38.6 20.8-39.65 22.45-39.65L22.45-39.65ZM40.75-27.15Q42.89-27.15 44.64-26.43 46.39-25.7 48-24.15L48-24.15 45.34-20.65Q44.25-21.55 43.27-21.98 42.3-22.4 41.14-22.4L41.14-22.4Q38.89-22.4 37.74-20.28 36.59-18.15 36.59-13.1L36.59-13.1Q36.59-8.2 37.77-6.2 38.95-4.2 41.14-4.2L41.14-4.2Q42.25-4.2 43.14-4.6 44.05-5 45.25-5.85L45.25-5.85 48-2.3Q44.8 0.75 40.84 0.75L40.84 0.75Q35.74 0.75 32.92-2.73 30.09-6.2 30.09-13L30.09-13Q30.09-17.4 31.39-20.6 32.7-23.8 35.12-25.48 37.55-27.15 40.75-27.15L40.75-27.15ZM51.04-37.05L57.19-37.7 57.19 0 51.04 0 51.04-37.05ZM64.54-26.45L70.54-26.45 63.54-14.75 71.14 0 64.54 0 57.44-14.45 64.54-26.45Z" opacity="1" transform="matrix(1,0,0,1,0,0)" fill="#ffb754" class="wordmark-text-0" data-fill-palette-color="primary" id="text-0"></path></svg></g></svg></g><g transform="matrix(1,0,0,1,0,289.18401599718885)"><svg viewBox="0 0 395.52 51.282225594334854" height="51.282225594334854" width="395.52"><g transform="matrix(1,0,0,1,0,0)"><svg width="395.52" viewBox="2.85 -37.7 296.51 38.45" height="51.282225594334854" data-palette-color="#ff933c"><path d="M15-27.15Q18.85-27.15 20.9-23.65 22.95-20.15 22.95-13.25L22.95-13.25Q22.95-6.75 20.65-3 18.35 0.75 14.35 0.75L14.35 0.75Q12.6 0.75 11.15-0.13 9.7-1 8.65-2.55L8.65-2.55 8.3 0 2.85 0 2.85-37 9-37.65 9-23.6Q10.05-25.3 11.58-26.23 13.1-27.15 15-27.15L15-27.15ZM12.7-3.9Q14.55-3.9 15.58-6 16.6-8.1 16.6-13.25L16.6-13.25Q16.6-18.6 15.68-20.58 14.75-22.55 13.05-22.55L13.05-22.55Q11.9-22.55 10.85-21.6 9.8-20.65 9-19.1L9-19.1 9-6.7Q9.65-5.45 10.63-4.67 11.6-3.9 12.7-3.9L12.7-3.9ZM46.4-13.85Q46.4-13.4 46.25-11.3L46.25-11.3 32.6-11.3Q32.8-7.2 34.02-5.58 35.25-3.95 37.5-3.95L37.5-3.95Q39.05-3.95 40.3-4.48 41.55-5 43-6.15L43-6.15 45.55-2.65Q42.05 0.75 37.15 0.75L37.15 0.75Q31.95 0.75 29.17-2.85 26.4-6.45 26.4-13L26.4-13Q26.4-19.55 29.05-23.35 31.7-27.15 36.55-27.15L36.55-27.15Q41.2-27.15 43.8-23.78 46.4-20.4 46.4-13.85L46.4-13.85ZM40.4-15.3L40.4-15.65Q40.4-19.4 39.5-21.13 38.6-22.85 36.6-22.85L36.6-22.85Q34.75-22.85 33.77-21.18 32.8-19.5 32.6-15.3L32.6-15.3 40.4-15.3ZM58.05-27.15Q62.75-27.15 66-24.05L66-24.05 63.65-20.7Q62.25-21.7 61-22.2 59.75-22.7 58.45-22.7L58.45-22.7Q57-22.7 56.17-21.93 55.35-21.15 55.35-19.8L55.35-19.8Q55.35-18.45 56.27-17.63 57.2-16.8 60-15.7L60-15.7Q63.45-14.35 65.09-12.5 66.75-10.65 66.75-7.55L66.75-7.55Q66.75-3.7 64.05-1.48 61.35 0.75 57.2 0.75L57.2 0.75Q54.5 0.75 52.22-0.23 49.95-1.2 48.25-2.95L48.25-2.95 51.25-6.25Q54.05-3.8 56.95-3.8L56.95-3.8Q58.6-3.8 59.55-4.67 60.5-5.55 60.5-7.1L60.5-7.1Q60.5-8.25 60.1-8.97 59.7-9.7 58.7-10.33 57.7-10.95 55.7-11.7L55.7-11.7Q52.25-13.05 50.77-14.85 49.3-16.65 49.3-19.45L49.3-19.45Q49.3-22.8 51.67-24.98 54.05-27.15 58.05-27.15L58.05-27.15ZM81.74-5L83.89-1.2Q81.44 0.75 78.14 0.75L78.14 0.75Q74.69 0.75 72.89-1.23 71.09-3.2 71.09-6.6L71.09-6.6 71.09-22 67.99-22 67.99-26.45 71.09-26.45 71.09-32.3 77.24-33.05 77.24-26.45 82.24-26.45 81.64-22 77.24-22 77.24-6.6Q77.24-4.2 79.29-4.2L79.29-4.2Q79.94-4.2 80.44-4.38 80.94-4.55 81.74-5L81.74-5ZM105.69-27.15Q110.69-27.15 113.46-23.65 116.24-20.15 116.24-13.25L116.24-13.25Q116.24-6.65 113.44-2.95 110.64 0.75 105.69 0.75L105.69 0.75Q100.74 0.75 97.94-2.88 95.14-6.5 95.14-13.25L95.14-13.25Q95.14-19.95 97.94-23.55 100.74-27.15 105.69-27.15L105.69-27.15ZM105.69-22.5Q103.54-22.5 102.54-20.38 101.54-18.25 101.54-13.25L101.54-13.25Q101.54-8.2 102.54-6.08 103.54-3.95 105.69-3.95L105.69-3.95Q107.84-3.95 108.84-6.08 109.84-8.2 109.84-13.25L109.84-13.25Q109.84-18.3 108.84-20.4 107.84-22.5 105.69-22.5L105.69-22.5ZM130.49-33.05Q129.09-33.05 128.41-32.3 127.73-31.55 127.73-30L127.73-30 127.73-26.45 132.78-26.45 132.09-22 127.73-22 127.73 0 121.59 0 121.59-22 118.28-22 118.28-26.45 121.59-26.45 121.59-29.8Q121.59-33.4 123.69-35.55 125.78-37.7 129.69-37.7L129.69-37.7Q132.74-37.7 135.59-36.2L135.59-36.2 133.88-32.2Q132.13-33.05 130.49-33.05L130.49-33.05ZM156.58-5L158.73-1.2Q156.28 0.75 152.98 0.75L152.98 0.75Q149.53 0.75 147.73-1.23 145.93-3.2 145.93-6.6L145.93-6.6 145.93-22 142.83-22 142.83-26.45 145.93-26.45 145.93-32.3 152.08-33.05 152.08-26.45 157.08-26.45 156.48-22 152.08-22 152.08-6.6Q152.08-4.2 154.13-4.2L154.13-4.2Q154.78-4.2 155.28-4.38 155.78-4.55 156.58-5L156.58-5ZM173.63-27.15Q176.48-27.15 178.13-25.1 179.78-23.05 179.78-19.6L179.78-19.6 179.78 0 173.63 0 173.63-18.9Q173.63-20.8 173.1-21.63 172.58-22.45 171.58-22.45L171.58-22.45Q169.48-22.45 167.43-18.5L167.43-18.5 167.43 0 161.28 0 161.28-37 167.43-37.65 167.43-23.3Q168.68-25.25 170.15-26.2 171.63-27.15 173.63-27.15L173.63-27.15ZM204.18-13.85Q204.18-13.4 204.03-11.3L204.03-11.3 190.38-11.3Q190.58-7.2 191.8-5.58 193.03-3.95 195.28-3.95L195.28-3.95Q196.83-3.95 198.08-4.48 199.33-5 200.78-6.15L200.78-6.15 203.33-2.65Q199.83 0.75 194.93 0.75L194.93 0.75Q189.73 0.75 186.95-2.85 184.18-6.45 184.18-13L184.18-13Q184.18-19.55 186.83-23.35 189.48-27.15 194.33-27.15L194.33-27.15Q198.98-27.15 201.58-23.78 204.18-20.4 204.18-13.85L204.18-13.85ZM198.18-15.3L198.18-15.65Q198.18-19.4 197.28-21.13 196.38-22.85 194.38-22.85L194.38-22.85Q192.53-22.85 191.55-21.18 190.58-19.5 190.38-15.3L190.38-15.3 198.18-15.3ZM230.47-27.15Q234.32-27.15 236.37-23.65 238.42-20.15 238.42-13.25L238.42-13.25Q238.42-6.75 236.12-3 233.82 0.75 229.82 0.75L229.82 0.75Q228.07 0.75 226.62-0.13 225.17-1 224.12-2.55L224.12-2.55 223.77 0 218.32 0 218.32-37 224.47-37.65 224.47-23.6Q225.52-25.3 227.05-26.23 228.57-27.15 230.47-27.15L230.47-27.15ZM228.17-3.9Q230.02-3.9 231.05-6 232.07-8.1 232.07-13.25L232.07-13.25Q232.07-18.6 231.15-20.58 230.22-22.55 228.52-22.55L228.52-22.55Q227.37-22.55 226.32-21.6 225.27-20.65 224.47-19.1L224.47-19.1 224.47-6.7Q225.12-5.45 226.1-4.67 227.07-3.9 228.17-3.9L228.17-3.9ZM261.87-13.85Q261.87-13.4 261.72-11.3L261.72-11.3 248.07-11.3Q248.27-7.2 249.49-5.58 250.72-3.95 252.97-3.95L252.97-3.95Q254.52-3.95 255.77-4.48 257.02-5 258.47-6.15L258.47-6.15 261.02-2.65Q257.52 0.75 252.62 0.75L252.62 0.75Q247.42 0.75 244.64-2.85 241.87-6.45 241.87-13L241.87-13Q241.87-19.55 244.52-23.35 247.17-27.15 252.02-27.15L252.02-27.15Q256.67-27.15 259.27-23.78 261.87-20.4 261.87-13.85L261.87-13.85ZM255.87-15.3L255.87-15.65Q255.87-19.4 254.97-21.13 254.07-22.85 252.07-22.85L252.07-22.85Q250.22-22.85 249.24-21.18 248.27-19.5 248.07-15.3L248.07-15.3 255.87-15.3ZM273.51-27.15Q278.21-27.15 281.46-24.05L281.46-24.05 279.12-20.7Q277.71-21.7 276.46-22.2 275.21-22.7 273.92-22.7L273.92-22.7Q272.46-22.7 271.64-21.93 270.81-21.15 270.81-19.8L270.81-19.8Q270.81-18.45 271.74-17.63 272.67-16.8 275.46-15.7L275.46-15.7Q278.92-14.35 280.56-12.5 282.21-10.65 282.21-7.55L282.21-7.55Q282.21-3.7 279.51-1.48 276.81 0.75 272.67 0.75L272.67 0.75Q269.96 0.75 267.69-0.23 265.42-1.2 263.71-2.95L263.71-2.95 266.71-6.25Q269.51-3.8 272.42-3.8L272.42-3.8Q274.06-3.8 275.01-4.67 275.96-5.55 275.96-7.1L275.96-7.1Q275.96-8.25 275.56-8.97 275.17-9.7 274.17-10.33 273.17-10.95 271.17-11.7L271.17-11.7Q267.71-13.05 266.24-14.85 264.76-16.65 264.76-19.45L264.76-19.45Q264.76-22.8 267.14-24.98 269.51-27.15 273.51-27.15L273.51-27.15ZM297.21-5L299.36-1.2Q296.91 0.75 293.61 0.75L293.61 0.75Q290.16 0.75 288.36-1.23 286.56-3.2 286.56-6.6L286.56-6.6 286.56-22 283.46-22 283.46-26.45 286.56-26.45 286.56-32.3 292.71-33.05 292.71-26.45 297.71-26.45 297.11-22 292.71-22 292.71-6.6Q292.71-4.2 294.76-4.2L294.76-4.2Q295.41-4.2 295.91-4.38 296.41-4.55 297.21-5L297.21-5Z" opacity="1" transform="matrix(1,0,0,1,0,0)" fill="#ff933c" class="slogan-text-1" data-fill-palette-color="secondary" id="text-1"></path></svg></g></svg></g></svg></g></svg></g><g></g></svg></g><defs></defs></svg><rect width="287.172506569104" height="247.2" fill="none" stroke="none" visibility="hidden"></rect></g></svg></g></svg>